<svg width="40" height="40" viewBox="0 0 40 40" fill="none" xmlns="http://www.w3.org/2000/svg">
<path d="M21.4534 21.985H30.0001V13.44C29.9867 11.5484 28.8817 11.0934 27.5451 12.4317L25.6217 14.3617C23.9271 13.0302 21.8335 12.308 19.6784 12.3117C17.0951 12.3117 14.6634 13.3184 12.8384 15.1467C11.9353 16.0412 11.2192 17.1065 10.7319 18.2806C10.2446 19.4546 9.99582 20.7139 10.0001 21.985C10.0001 24.5734 11.0067 27.005 12.8351 28.83C13.7315 29.7318 14.798 30.4468 15.9726 30.9337C17.1473 31.4207 18.4068 31.6698 19.6784 31.6667C22.2617 31.6667 24.6934 30.6584 26.5217 28.8284C27.0151 28.3334 27.4517 27.7934 27.8217 27.22C28.0991 26.7882 28.1935 26.2638 28.0843 25.7623C27.9751 25.2608 27.6711 24.8232 27.2392 24.5459C26.8074 24.2685 26.283 24.174 25.7815 24.2833C25.28 24.3925 24.8424 24.6965 24.5651 25.1284C24.3434 25.4734 24.0784 25.795 23.7851 26.095C23.2468 26.6356 22.6067 27.0641 21.9018 27.3559C21.197 27.6477 20.4413 27.7969 19.6784 27.795C18.9154 27.7974 18.1596 27.6484 17.4547 27.3566C16.7498 27.0648 16.1097 26.636 15.5717 26.095C15.031 25.5565 14.6024 24.9161 14.3106 24.211C14.0188 23.5058 13.8697 22.7498 13.8717 21.9867C13.8717 20.4367 14.4751 18.9784 15.5717 17.885C16.1099 17.3442 16.75 16.9154 17.4548 16.6234C18.1597 16.3313 18.9154 16.1817 19.6784 16.1834C20.8251 16.1834 21.9217 16.5184 22.8601 17.1367L20.4467 19.555C19.1084 20.8917 19.5634 21.985 21.4534 21.985Z" fill="black"/>
</svg>
