<svg width="150" height="150" viewBox="0 0 150 150" fill="none" xmlns="http://www.w3.org/2000/svg">
<path fill-rule="evenodd" clip-rule="evenodd" d="M56.25 31.25C56.25 27.9348 57.567 24.7554 59.9112 22.4112C62.2554 20.067 65.4348 18.75 68.75 18.75H81.25C84.5652 18.75 87.7446 20.067 90.0888 22.4112C92.433 24.7554 93.75 27.9348 93.75 31.25V56.25H118.75C122.065 56.25 125.245 57.567 127.589 59.9112C129.933 62.2554 131.25 65.4348 131.25 68.75V81.25C131.25 84.5652 129.933 87.7446 127.589 90.0888C125.245 92.433 122.065 93.75 118.75 93.75H93.75V118.75C93.75 122.065 92.433 125.245 90.0888 127.589C87.7446 129.933 84.5652 131.25 81.25 131.25H68.75C65.4348 131.25 62.2554 129.933 59.9112 127.589C57.567 125.245 56.25 122.065 56.25 118.75V93.75H31.25C27.9348 93.75 24.7554 92.433 22.4112 90.0888C20.067 87.7446 18.75 84.5652 18.75 81.25V68.75C18.75 65.4348 20.067 62.2554 22.4112 59.9112C24.7554 57.567 27.9348 56.25 31.25 56.25H56.25V31.25Z" fill="#5259FF"/>
</svg>
