<svg width="276" height="38" viewBox="0 0 276 38" fill="none" xmlns="http://www.w3.org/2000/svg">
<path d="M4.25 29.75V25.5H0V21.25H8.5V25.5H21.25V17H4.25V12.75H0V4.25H4.25V0H25.5V4.25H29.75V8.5H21.25V4.25H8.5V12.75H25.5V17H29.75V25.5H25.5V29.75H4.25ZM38.25 29.75V25.5H34V21.25H38.25V17H55.25V12.75H38.25V8.5H59.5V12.75H63.75V29.75H38.25ZM42.5 25.5H55.25V21.25H42.5V25.5ZM68 29.75V8.5H93.5V12.75H97.75V29.75H89.25V12.75H76.5V29.75H68ZM106.25 29.75V25.5H102V21.25H110.5V25.5H123.25V17H106.25V12.75H102V4.25H106.25V0H127.5V4.25H131.75V8.5H123.25V4.25H110.5V12.75H127.5V17H131.75V25.5H127.5V29.75H106.25ZM140.25 29.75V25.5H136V12.75H140.25V8.5H165.75V12.75H144.5V25.5H165.75V29.75H140.25ZM174.25 29.75V25.5H170V12.75H174.25V8.5H195.5V12.75H199.75V25.5H195.5V29.75H174.25ZM178.5 25.5H191.25V12.75H178.5V25.5ZM216.75 12.75H221V17H216.75V29.75H208.25V8.5H216.75V12.75ZM233.75 8.5V12.75H221V8.5H233.75ZM242.25 29.75V25.5H238V12.75H242.25V8.5H263.5V12.75H267.75V21.25H246.5V25.5H263.5V29.75H242.25ZM246.5 17H259.25V12.75H246.5V17Z" fill="#4865FF"/>
</svg>
